<svg xmlns="http://www.w3.org/2000/svg" viewBox="0 0 899.04 844.42"><defs><style>.cls-1{fill:#c9c9c9;}.cls-2{fill:#8f8f8f;}.cls-3{fill:#707070;}</style></defs><g id="Ebene_2" data-name="Ebene 2"><g id="App_Symbol-Kit_A" data-name="App – Symbol-Kit A"><g id="Haupt-App-Symbol_und_-Emblem" data-name="Haupt-App-Symbol und -Emblem"><g id="_1024" data-name="1024"><polygon class="cls-1" points="545.82 395.58 439.16 844.42 214.73 522.82 545.82 395.58"/><polygon class="cls-2" points="747.34 310.17 545.82 395.58 214.73 522.82 214.41 522.34 507.19 294.79 635.87 105.84 747.34 310.17"/><polygon class="cls-3" points="899.04 209.19 810.81 181.95 844.02 107.03 899.04 209.19"/><polygon class="cls-1" points="844.02 107.03 810.81 181.95 747.34 310.17 635.87 105.84 844.02 107.03"/><polygon class="cls-1" points="635.87 105.84 507.19 294.79 381.27 0 635.87 105.84"/><polygon class="cls-2" points="507.19 294.79 429.08 265.13 0 102.21 381.27 0 507.19 294.79"/><polygon class="cls-1" points="507.19 294.79 214.41 522.34 214.16 521.99 429.08 265.13 507.19 294.79"/></g></g></g></g></svg>